<svg id="Group_2" data-name="Group 2" xmlns="http://www.w3.org/2000/svg" xmlns:xlink="http://www.w3.org/1999/xlink" width="92.095" height="59.856" viewBox="0 0 92.095 59.856">
  <defs>
    <clipPath id="clip-path">
      <rect id="Rectangle_3" data-name="Rectangle 3" width="92.095" height="59.856" fill="none"/>
    </clipPath>
  </defs>
  <g id="Group_1" data-name="Group 1" clip-path="url(#clip-path)">
    <path id="Path_1" data-name="Path 1" d="M91.694,21.465a1.767,1.767,0,0,0-1.373-.65l-1.8,0,.464-2.454a1.772,1.772,0,0,0-1.732-2.125l-3.637,0h0a2.831,2.831,0,0,0-3.133,2.538l-.394,2.053h-.156A2.76,2.76,0,0,0,77.3,22.034L22.249.253a3.814,3.814,0,0,0-5.1,2.613l-2.416,11.85-10.833,0h0A2.88,2.88,0,0,0,.771,17.256C.6,18.142.033,20.986.033,20.986A1.771,1.771,0,0,0,1.772,23.1l3.912,0L2.906,36.788a1.771,1.771,0,0,0,1.736,2.124L9.8,38.906,6.416,55.522a3.56,3.56,0,0,0,4.669,4.128L71.517,38.9l9.049,0c.571,0,1.139,0,1.685,0a2.833,2.833,0,0,0,3.125-2.536l.484-2.388,2.373-.815a3.586,3.586,0,0,0,1.782-5.479,1.769,1.769,0,0,0,1.354-1.372c.071-.353.175-.857.284-1.392l.016-.079c.138-.673.284-1.386.389-1.907a1.764,1.764,0,0,0-.365-1.471" transform="translate(0 0)" fill="#fff"/>
    <path id="Path_2" data-name="Path 2" d="M275.421,171.912l-1,4.831a1.024,1.024,0,0,0,1.338,1.174l7-2.43a1.024,1.024,0,0,0,.045-1.918l-6-2.4a1.024,1.024,0,0,0-1.383.743" transform="translate(-247.477 -154.307)" fill="#e40523"/>
    <path id="Path_3" data-name="Path 3" d="M341.564,162.465l-3.635,0a.547.547,0,0,0-.537.439l-1.343,6.705a5.733,5.733,0,0,0-3.776-1.21c-4.8,0-8.055,3.771-8.055,8.528.039,3.587,2.247,6.333,5.768,6.333a5.493,5.493,0,0,0,3.547-1.248l-.085.419a.547.547,0,0,0,.537.654h3.637a.543.543,0,0,0,.532-.437l3.943-19.52a.548.548,0,0,0-.535-.659m-10.013,16.324a2.4,2.4,0,0,1-2.391-2.51,3.255,3.255,0,0,1,3.232-3.429,2.354,2.354,0,0,1,2.418,2.549,3.264,3.264,0,0,1-3.259,3.39" transform="translate(-292.408 -146.52)" fill="#1d1d1b"/>
    <path id="Path_4" data-name="Path 4" d="M813.756,182.505l-3.289,0,.758-3.92a.548.548,0,0,0-.535-.659l-3.635,0a.547.547,0,0,0-.537.439l-.8,4.15-2.338,0a.543.543,0,0,0-.539.437l-.69,3.372a.544.544,0,0,0,.537.652h2.125l-1.9,9.4a.547.547,0,0,0,.537.654h3.637a.543.543,0,0,0,.532-.437l1.95-9.613h3.5a.546.546,0,0,0,.539-.439c.164-.811.5-2.418.69-3.377a.547.547,0,0,0-.538-.656" transform="translate(-723.433 -160.467)" fill="#1d1d1b"/>
    <path id="Path_5" data-name="Path 5" d="M152.9,227.171l.707-3.415a.548.548,0,0,0-.467-.653,4.637,4.637,0,0,0-1.689.087,4.951,4.951,0,0,0-2.6,2.011c.129-.643.239-1.185.265-1.319a.546.546,0,0,0-.535-.654l-3.649,0a.535.535,0,0,0-.528.44l-2.718,13.424a.548.548,0,0,0,.535.657h3.563a.548.548,0,0,0,.606-.438l1.416-6.972c.606-2.983,3.436-2.871,4.444-2.747a.561.561,0,0,0,.647-.417" transform="translate(-127.779 -201.176)" fill="#1d1d1b"/>
    <path id="Path_6" data-name="Path 6" d="M255.536,248.733l-3.324,1.151a1.53,1.53,0,0,0-1.1,1.333l-1.823,8.978a.549.549,0,0,0,.538.655h3.642a.553.553,0,0,0,.54-.443l2.247-11.045a.549.549,0,0,0-.718-.628" transform="translate(-224.819 -224.3)" fill="#1d1d1b"/>
    <path id="Path_7" data-name="Path 7" d="M43.808,162.43l-15.8,0a.543.543,0,0,0-.535.438c-.188.948-.546,2.759-.738,3.73a.547.547,0,0,0,.538.653l5.409,0L29.6,182.4a.548.548,0,0,0,.538.657l3.8-.006a.548.548,0,0,0,.536-.439L37.6,167.241l5.492,0a.541.541,0,0,0,.533-.439l.724-3.716a.547.547,0,0,0-.537-.652" transform="translate(-24.099 -146.49)" fill="#1d1d1b"/>
    <path id="Path_8" data-name="Path 8" d="M644.373,222.991a4.768,4.768,0,0,0-3.725,1.6l.17-.792a.524.524,0,0,0-.538-.641l-3.652,0a.545.545,0,0,0-.539.44l-2.716,13.424a.548.548,0,0,0,.537.654l3.64,0a.544.544,0,0,0,.531-.433l1.238-6.032c.475-2.419,1.165-3.468,2.7-3.457,1.6.011,1.865,1.225,1.69,2.168l-1.445,7.1a.547.547,0,0,0,.535.657l3.65,0a.547.547,0,0,0,.539-.439l1.513-7.467a11.562,11.562,0,0,0,.329-2.308c0-3.07-2.123-4.4-4.456-4.474" transform="translate(-571.219 -201.11)" fill="#1d1d1b"/>
    <path id="Path_9" data-name="Path 9" d="M498.969,222.8a8.371,8.371,0,0,0-8.345,8.631c0,3.718,2.564,6.24,6.736,6.24a8.334,8.334,0,0,0,5.415-1.912.6.6,0,0,0,.067-.855l-1.967-2.228a.446.446,0,0,0-.593-.068,4.161,4.161,0,0,1-2.444.9,1.888,1.888,0,0,1-2.061-1.9h8.486a.45.45,0,0,0,.433-.335A9.021,9.021,0,0,0,505,228.96c0-2.99-1.508-6.161-6.032-6.161m-.352,4.082a1.458,1.458,0,0,1,1.483,1.508,2.127,2.127,0,0,1-.017.266h-3.816a2.625,2.625,0,0,1,2.35-1.774" transform="translate(-442.486 -200.939)" fill="#1d1d1b"/>
  </g>
</svg>
