<svg id="Group_4" data-name="Group 4" xmlns="http://www.w3.org/2000/svg" xmlns:xlink="http://www.w3.org/1999/xlink" width="155.474" height="18.431" viewBox="0 0 155.474 18.431">
  <defs>
    <clipPath id="clip-path">
      <rect id="Rectangle_4" data-name="Rectangle 4" width="155.474" height="18.431" fill="none"/>
    </clipPath>
  </defs>
  <g id="Group_3" data-name="Group 3" clip-path="url(#clip-path)">
    <path id="Path_10" data-name="Path 10" d="M180.641,5.5V4.4a4.559,4.559,0,0,1,.047-.586.322.322,0,0,1,.187-.234.91.91,0,0,1,.352-.047c.375-.023.75-.023,1.126-.023.516,0,1.008-.024,1.524-.024h.352c.235,0,.469-.023.727-.023h.446c.492.023.985.047,1.454.047a1.1,1.1,0,0,1,.375.094,4.58,4.58,0,0,1,1.477.821,1.072,1.072,0,0,1,.282.281,6.275,6.275,0,0,1,1.665,3.189,1.874,1.874,0,0,0,.07.352c.07.4.117.774.164,1.172.023.352.047.727.094,1.079,0,.234.023.492.023.727,0,.61.023,1.2,0,1.782,0,.352-.023.7-.047,1.055l-.07.774a11.216,11.216,0,0,1-.961,3.494,3.623,3.623,0,0,1-.187.446c-.094.141-.164.3-.258.446a2.989,2.989,0,0,1-.961.914,3.085,3.085,0,0,0-.352.235,6.853,6.853,0,0,1-1.1.539,3.034,3.034,0,0,1-.445.094,12.759,12.759,0,0,1-1.337.047h-.328a1.184,1.184,0,0,1-.281-.047h-.281a1.15,1.15,0,0,1-.281.023c-.211,0-.4.023-.61.023-.821,0-1.641-.023-2.462-.094h-.094a.275.275,0,0,1-.211-.258,3.828,3.828,0,0,1-.047-.516V14.314c-.023-.586-.023-1.172-.047-1.735v-.258c.023-.539.023-1.055.023-1.595V8.241c-.023-.915-.023-1.829-.023-2.744m4.033,2.228c0,.446.023.891.023,1.313s0,.868.023,1.29v6.238a.647.647,0,0,0,.024.211.366.366,0,0,0,.375.352c.047.024.094,0,.141.024a.648.648,0,0,0,.211.024,1.052,1.052,0,0,0,.75-.211,1.346,1.346,0,0,0,.563-.774c.023-.117.047-.258.07-.375a2.664,2.664,0,0,0,.117-1.055V13.353c0-.094.023-.188.023-.281a1.947,1.947,0,0,0,.023-.516c0-.539.023-1.079-.023-1.641,0-.07-.023-.164-.023-.235a6.272,6.272,0,0,1,0-.938V9.155a2.869,2.869,0,0,0-.469-1.571,1.088,1.088,0,0,0-.75-.4h-.68c-.3,0-.4.281-.4.539" transform="translate(-162.264 -3.105)" fill="#fff"/>
    <path id="Path_11" data-name="Path 11" d="M294.1,4.041a.486.486,0,0,1,.141-.234c.047-.023.094-.071.141-.094.07,0,.141.023.211.023a.721.721,0,0,0,.188-.047h4.174c.492,0,1.5.024,2.017.024.117,0,.235.023.375.023.258.024.492.024.75.047.211,0,.258.047.3.234a.881.881,0,0,1,.023.258V7.464a1.779,1.779,0,0,1-.023.352c-.024.211-.094.235-.3.235h-2.228c-.328,0-.657,0-.985.023-.234,0-.469.07-.469.352v.211c0,.4,0,.8.023,1.173,0,.3.07.375.352.375h1.29a2.593,2.593,0,0,0,.446.047,4.581,4.581,0,0,1,.586.047.316.316,0,0,1,.328.3v3.259c0,.141-.023.3-.023.446a.275.275,0,0,1-.211.258h-2.439c-.188.024-.3.117-.3.3a.886.886,0,0,0,0,.352v.4c-.023.328-.023.633-.023.961a.306.306,0,0,0,.3.281,1.435,1.435,0,0,0,.3.024c.258,0,.516,0,.774.023h1.36c.3.023.586.023.868.047a.382.382,0,0,1,.375.352v3.517c0,.141-.047.422-.234.422h-8.02a.72.72,0,0,1-.094-.352c.023-.586.023-1.172.023-1.735,0-.469-.023-.938,0-1.407v-2.7c0-.633,0-1.266-.023-1.9v-.164c0-.586.023-1.172,0-1.735V8.519c0-.7-.023-1.43-.023-2.134V5.19a3.79,3.79,0,0,0,0-.516,5.761,5.761,0,0,0,.047-.633" transform="translate(-264.137 -3.314)" fill="#fff"/>
    <path id="Path_12" data-name="Path 12" d="M397.744,5.51a1.374,1.374,0,0,1-.446.047h-1.29c-.328,0-.68-.023-1.008-.023a3.453,3.453,0,0,1-.492-.023c-.047,0-.094.023-.141.023-.141-.023-.188-.047-.188-.211,0-.7-.328-1.337-1.125-1.337a.647.647,0,0,0-.211.023.826.826,0,0,0-.3.188,1.01,1.01,0,0,0-.352,1.055,2.6,2.6,0,0,0,.938,1.243.623.623,0,0,0,.141.117,2.445,2.445,0,0,0,.75.539.073.073,0,0,0,.047.023c.469.3.961.516,1.407.821a9.351,9.351,0,0,1,1.079.821,2.673,2.673,0,0,0,.3.235c.188.211.352.4.539.61a.955.955,0,0,1,.117.211c.117.188.211.375.3.563a.072.072,0,0,1,.024.047,6.4,6.4,0,0,1,.539,1.595,4.589,4.589,0,0,1-.094,2.04c-.117.422-.281.868-.446,1.29l-.141.281c-.07.117-.141.211-.211.328a2.452,2.452,0,0,1-.188.258c-.023.047-.07.07-.094.117a4.973,4.973,0,0,1-3.7,2.017,3.008,3.008,0,0,1-.469.023,3.161,3.161,0,0,1-.469-.023,6.671,6.671,0,0,1-1.993-.563.51.51,0,0,1-.117-.07,4.409,4.409,0,0,1-.539-.375,3.614,3.614,0,0,1-.445-.4,9.624,9.624,0,0,1-.844-1.149,2.816,2.816,0,0,1-.375-1.079,1.749,1.749,0,0,1-.07-.469c-.023-.281-.047-.539-.047-.8a2.113,2.113,0,0,1,.07-.375.408.408,0,0,1,.375-.281,1.658,1.658,0,0,1,.328-.024h3.072c.211.047.211.281.211.469a1.141,1.141,0,0,0,.352.8,1.023,1.023,0,0,0,.445.234.547.547,0,0,0,.422-.141,1.248,1.248,0,0,0,.235-1.1.756.756,0,0,0-.281-.469c-.047-.023-.071-.07-.117-.117a2.637,2.637,0,0,0-.375-.352,15.292,15.292,0,0,0-1.618-1.126c-.235-.164-.493-.3-.727-.446-.047-.047-.117-.094-.164-.141a6.775,6.775,0,0,1-2.275-3.1c-.023-.047-.023-.094-.047-.141a4.7,4.7,0,0,1-.164-1.266,7.121,7.121,0,0,1,.656-3.33A7.474,7.474,0,0,1,390.24.679a5.065,5.065,0,0,1,1.5-.563A4.934,4.934,0,0,1,392.562,0h.539a2,2,0,0,1,.375.024c.422.094.821.188,1.243.3.047.024.117.047.164.071,1.524.422,2.72,2.321,3,3.775a3.147,3.147,0,0,1-.023.938.614.614,0,0,1-.117.4" transform="translate(-348.413 0.001)" fill="#fff"/>
    <path id="Path_13" data-name="Path 13" d="M503.341,14.013c0,1.173.023,2.345.023,3.517v2.251c-.023.234-.023.445-.047.657a.881.881,0,0,1-.164.281c-.023.071-.094.071-.164.071-.211.023-.445.023-.657.047h-.188a13.9,13.9,0,0,1-1.407-.047.3.3,0,0,0-.141.023,1.139,1.139,0,0,1-.281.024c-.188,0-.375-.024-.563-.024-.164,0-.3-.023-.445-.023a.29.29,0,0,1-.188-.094.928.928,0,0,1-.141-.352c-.023-.258-.023-.493-.023-.75.023-.281,0-.539,0-.8v-2.11c.023-1.454.023-2.908.023-4.362,0-.75-.023-1.5-.023-2.251a2.551,2.551,0,0,1,0-.422.878.878,0,0,0,.023-.258c-.047-.352.023-.75,0-1.1v-.4a.3.3,0,0,0-.328-.3.176.176,0,0,0-.117-.023c-.61,0-1.665,0-1.946-.023a.381.381,0,0,1-.375-.328V3.859a1.139,1.139,0,0,1,.023-.281.314.314,0,0,1,.188-.328H499.8c.492-.024,1.008-.024,1.524-.024h.868c.891.024,1.032.024,1.923.024.3.023.61.023.914.047.047,0,.094-.024.141-.024h.68a.216.216,0,0,1,.235.211c0,.164.023.328.023.469v3.1c0,.235-.047.446-.328.493a1.346,1.346,0,0,0-.3.023c-.4,0-1.29.023-1.688.023h-.141a.31.31,0,0,0-.3.3v.563c.047,1.829,0,3.728,0,5.558" transform="translate(-445.731 -2.898)" fill="#fff"/>
    <path id="Path_14" data-name="Path 14" d="M605,3.141a.3.3,0,0,1,.211-.258.748.748,0,0,1,.328-.071h1.079c.539-.023,1.078-.023,1.618-.047h1.008c.656,0,1.29.024,1.946.047a3.772,3.772,0,0,1,2.11,1.149,6.651,6.651,0,0,1,1.688,3.33v.188a3.865,3.865,0,0,1,.047.516c0,.211-.023.422-.023.61v.188a6.219,6.219,0,0,1-1.946,3.986.465.465,0,0,0-.07.492c.094.234.188.492.281.75.445,1.2.891,2.415,1.36,3.611.188.492.375.961.563,1.43a8.97,8.97,0,0,1,.422,1.2c.023.024,0,.07.023.094,0,.024-.023.024-.047.047h-.985c-.657,0-1.29.024-1.923.024-.469,0-.938-.024-1.407-.047a.469.469,0,0,1-.094-.188c-.117-.3-.211-.61-.328-.915-.187-.563-.375-1.149-.586-1.712-.094-.281-.188-.563-.281-.821-.211-.68-.445-1.36-.68-2.04,0-.024-.023-.07-.023-.094a.125.125,0,0,0-.094-.07.122.122,0,0,0-.094.047.555.555,0,0,0-.047.188,5.917,5.917,0,0,0-.023.657v.047c-.023.375.047.774.047,1.172,0,.258.023.492.023.75v.422c-.023.211-.023.446-.047.657,0,.516.023,1.008.023,1.5a.457.457,0,0,1-.023.188.111.111,0,0,1-.117.117c-.211,0-.422.047-.633.047h-2.181c-.258,0-.539-.047-.8-.07-.211-.047-.258-.117-.3-.328A8.992,8.992,0,0,1,605,18.805v-4.69c0-.727-.023-1.454-.023-2.181V7.268c0-.61-.023-1.219-.023-1.829,0-.446,0-.868.023-1.313a.648.648,0,0,0-.023-.211A4.3,4.3,0,0,1,605,3.141M609.035,8.3V9.66a.177.177,0,0,0,.094.164.447.447,0,0,0,.188.07,2.87,2.87,0,0,0,.446.047,1.233,1.233,0,0,0,.3-.024A1.214,1.214,0,0,0,610.982,9a5.463,5.463,0,0,0,.188-.844.8.8,0,0,0,0-.469,1.553,1.553,0,0,0-.375-.821.9.9,0,0,0-.727-.375,6.771,6.771,0,0,0-.68-.024c-.328.047-.375.281-.375.563,0,.422,0,.844.023,1.266" transform="translate(-543.406 -2.485)" fill="#fff"/>
    <path id="Path_15" data-name="Path 15" d="M721.41,20.385c.094-.633.164-1.266.258-1.9.117-.7.211-1.43.328-2.157.094-.727.188-1.43.281-2.157.164-1.173.328-2.321.493-3.494.047-.469.141-.938.188-1.384.07-.539.141-1.078.211-1.594.047-.445.094-.868.164-1.313.07-.539.141-1.1.211-1.665.023-.164.023-.352.047-.516a.4.4,0,0,1,.3-.375,2.745,2.745,0,0,1,.422-.094c.422-.023.844-.047,1.266-.047h1.946c.258,0,.539.024.8.024h.234c.047,0,.094-.024.141-.024a1.367,1.367,0,0,1,.445.094.374.374,0,0,1,.3.352c.047.375.094.727.141,1.1.094.891.188,1.806.328,2.7.094.868.234,1.712.4,2.556.094.539.188,1.055.258,1.595.117,1.008.258,2.04.422,3.048.047.446.117.891.188,1.313.117,1.149.281,2.3.493,3.424.023.234.07.469.094.7a.669.669,0,0,1-.281.563.4.4,0,0,1-.164.024c-.094.024-.188.024-.281.047-.141,0-.258.023-.4.023h-1.336a.8.8,0,0,1-.235-.023h-.656a.578.578,0,0,1-.539-.4,3.513,3.513,0,0,1-.141-.68.623.623,0,0,0-.07-.281c-.727-.024-1.43-.024-2.134-.047a.086.086,0,0,0-.07.024l-.07.281c-.047.234-.07.469-.117.7a.431.431,0,0,1-.047.164.3.3,0,0,1-.281.235,1.149,1.149,0,0,0-.281.023h-2.087c-.3,0-.586-.023-.891-.023a.331.331,0,0,1-.141-.047.179.179,0,0,1-.141-.188,1.642,1.642,0,0,1,0-.586m4.573-4.784c0,.117.141.352.281.352.234-.024.469-.024.68-.047a.2.2,0,0,0,.188-.164,1.094,1.094,0,0,0,.047-.4c-.188-1.149-.3-2.322-.422-3.471a.131.131,0,0,0-.117-.141.141.141,0,0,0-.094-.024.487.487,0,0,0-.117.281c-.047.3-.094.61-.141.938-.07.4-.117.8-.164,1.2-.023.328-.07.656-.117.985a3.455,3.455,0,0,1-.023.492" transform="translate(-647.995 -3.314)" fill="#fff"/>
    <path id="Path_16" data-name="Path 16" d="M818.951,4.157a2.059,2.059,0,0,1,.141-.235.465.465,0,0,1,.3-.141,8.958,8.958,0,0,1,1.383-.07h.7c.211,0,.422.023.633.023h.164a.574.574,0,0,1,.539.469,2.386,2.386,0,0,1,.141.586c.023.328.047.657.094.985.047.3.117.61.141.915.117,1.055.375,2.11.563,3.166.141.774.3,1.524.445,2.275a.179.179,0,0,0,.047.117c.07,0,.07-.047.07-.07.07-.469.164-.915.235-1.384.047-.352.117-.727.164-1.078.117-.8.211-1.618.281-2.415.07-.492.117-.961.164-1.454a14.814,14.814,0,0,1,.281-1.782c.047-.258.164-.328.422-.328h.047a2.6,2.6,0,0,1,.422-.047c.211,0,.4.023.61.023.563,0,1.149.023,1.712.023h.328a.332.332,0,0,1,.141.047.205.205,0,0,1,.164.211,2.041,2.041,0,0,1,.023.539c-.07.375-.117.727-.164,1.079-.117.727-.211,1.454-.328,2.181-.047.375-.141.774-.211,1.173-.07.469-.141.961-.211,1.454-.07.422-.117.844-.211,1.29-.141.915-.328,1.853-.492,2.791-.328,1.688-.633,3.4-.915,5.112-.094.469-.164.914-.258,1.383a.723.723,0,0,1-.047.188.1.1,0,0,0-.07.024c-.352.023-.7.047-1.055.047h-2.931c-.235,0-.211-.023-.3-.328-.141-.469-.211-.961-.3-1.43-.516-2.814-1.032-5.651-1.618-8.465-.446-2.228-.844-4.479-1.266-6.706a.4.4,0,0,1,.023-.164" transform="translate(-735.616 -3.313)" fill="#fff"/>
    <path id="Path_17" data-name="Path 17" d="M932.616,4.041a.487.487,0,0,1,.141-.234c.047-.023.094-.071.141-.094.07,0,.141.023.211.023a.721.721,0,0,0,.188-.047h4.174c.492,0,1.5.024,2.016.024.117,0,.234.023.375.023.258.024.492.024.75.047.211,0,.258.047.3.234a.875.875,0,0,1,.024.258V7.464a1.765,1.765,0,0,1-.024.352c-.023.211-.094.235-.3.235h-2.228c-.328,0-.656,0-.985.023-.235,0-.469.07-.469.352v.211c0,.4,0,.8.023,1.173,0,.3.07.375.352.375h1.29a2.594,2.594,0,0,0,.446.047,4.577,4.577,0,0,1,.586.047.316.316,0,0,1,.328.3v3.259c0,.141-.024.3-.024.446a.275.275,0,0,1-.211.258h-2.439c-.188.024-.3.117-.3.3a.893.893,0,0,0,0,.352v.4c-.023.328-.023.633-.023.961a.306.306,0,0,0,.3.281,1.435,1.435,0,0,0,.3.024c.258,0,.516,0,.774.023h1.36c.3.023.586.023.868.047a.382.382,0,0,1,.375.352v3.517c0,.141-.047.422-.235.422h-8.02a.72.72,0,0,1-.094-.352c.023-.586.023-1.172.023-1.735,0-.469-.023-.938,0-1.407v-2.7c0-.633,0-1.266-.023-1.9v-.164c0-.586.023-1.172,0-1.735V8.519c0-.7-.024-1.43-.024-2.134V5.19a3.766,3.766,0,0,0,0-.516,5.724,5.724,0,0,0,.047-.633" transform="translate(-837.697 -3.314)" fill="#fff"/>
    <path id="Path_18" data-name="Path 18" d="M1120.028,3.856c0-.258.328-.328.539-.328.375,0,.75,0,1.125-.023.516,0,1.008-.024,1.524-.024h.281c.117,0,.211.024.328.024a3.489,3.489,0,0,0,.492-.047h.446l1.43.07a.939.939,0,0,1,.352.071c.07.023.164.07.258.094a3.57,3.57,0,0,1,1.5.985,6.985,6.985,0,0,1,1.337,2.04,6.92,6.92,0,0,1,.352,1.243c0,.07.024.141.024.235a3.481,3.481,0,0,1,.023.492,2.845,2.845,0,0,1,0,.633c0,.07-.023.141-.023.188a3.956,3.956,0,0,1-.188,1.172,6.477,6.477,0,0,1-1.477,2.509,3.354,3.354,0,0,1-1.806,1.149,2.558,2.558,0,0,1-.61.117,8.518,8.518,0,0,1-1.337.07h-.234a.276.276,0,0,0-.281.211c0,.071-.023.141-.023.211v1.5a.859.859,0,0,0,.023.422v.117c.024.375.047.774.047,1.149a2.17,2.17,0,0,1-.023.375c0,.211-.024.445-.024.68v1.641c0,.141-.023.164-.164.164h-.094a2.1,2.1,0,0,1-.539.047h-.352c-.586,0-1.172,0-1.759-.023a3.428,3.428,0,0,1-.844-.07c-.187-.024-.258-.094-.281-.3a6.633,6.633,0,0,1-.047-.68c.024-1.36,0-2.744,0-4.127V13.517c0-.422,0-.821-.023-1.219H1120V8.4c0-.563-.023-1.1-.023-1.665V4.817c0-.047.023-.094,0-.141a4.822,4.822,0,0,1,.047-.821m4.1,6.683a.772.772,0,0,0,.4.094.72.72,0,0,0,.234.024,2.379,2.379,0,0,0,.539-.094c.047-.024.117-.07.164-.094a1.331,1.331,0,0,0,.539-.75,5.168,5.168,0,0,0,.188-.868.956.956,0,0,0,0-.446,1.66,1.66,0,0,0-.4-.844.957.957,0,0,0-.7-.375h-.7a.264.264,0,0,0-.281.188,1.06,1.06,0,0,0-.071.375v2.6a.29.29,0,0,0,.094.188" transform="translate(-1006.037 -3.105)" fill="#fff"/>
    <path id="Path_19" data-name="Path 19" d="M1228.38,8.428V4.442a5.752,5.752,0,0,1,.047-.633.431.431,0,0,1,.258-.281c.024-.023.07,0,.094,0,.047,0,.07.024.117.024a.438.438,0,0,0,.164-.047.141.141,0,0,1,.094-.024h.117c.164,0,.352-.023.516-.023a.648.648,0,0,1,.211.023,1.049,1.049,0,0,0,.281.024h2.2c.07.023.117.047.141.117a1.069,1.069,0,0,1,.117.469V7.326c0,.3.023.61,0,.915a4.506,4.506,0,0,0,0,.8c0,.516.023,1.055.023,1.595v2.58c0,.234.023.469.023.7a3.955,3.955,0,0,1-.023.75v.07c.047.516-.023,1.032,0,1.548,0,.258.094.375.375.375.375.023.774.023,1.149.023a8.286,8.286,0,0,1,1.079.047h.4c.234,0,.469.094.492.352v3.377a1.443,1.443,0,0,1-.023.328c-.023.188-.094.234-.281.234h-1.29c-.539,0-1.079.023-1.618.023h-3.963c-.141,0-.3-.023-.446-.023h-.094c-.023,0-.094-.023-.094-.047a1.178,1.178,0,0,1-.047-.281V17.644c0-.821.023-1.618.023-2.439v-1.9c0-.281-.023-.563-.023-.844v-.938c0-1.032,0-2.064-.024-3.1" transform="translate(-1103.414 -3.105)" fill="#fff"/>
    <path id="Path_20" data-name="Path 20" d="M1317.346,20.385c.094-.633.164-1.266.258-1.9.117-.7.211-1.43.328-2.157.094-.727.188-1.43.281-2.157.164-1.173.328-2.321.493-3.494.047-.469.141-.938.188-1.384.07-.539.141-1.078.211-1.594.047-.445.094-.868.164-1.313.07-.539.141-1.1.211-1.665.024-.164.024-.352.047-.516a.4.4,0,0,1,.3-.375,2.742,2.742,0,0,1,.422-.094c.422-.023.844-.047,1.266-.047h1.946c.258,0,.539.024.8.024h.234c.047,0,.094-.024.141-.024a1.367,1.367,0,0,1,.446.094.374.374,0,0,1,.3.352c.047.375.094.727.141,1.1.094.891.188,1.806.328,2.7.094.868.234,1.712.4,2.556.094.539.188,1.055.258,1.595.117,1.008.258,2.04.422,3.048.047.446.117.891.188,1.313.117,1.149.281,2.3.493,3.424.023.234.07.469.094.7a.669.669,0,0,1-.281.563.4.4,0,0,1-.164.024c-.094.024-.188.024-.281.047-.141,0-.258.023-.4.023h-1.336a.8.8,0,0,1-.235-.023h-.656a.578.578,0,0,1-.539-.4,3.518,3.518,0,0,1-.141-.68.623.623,0,0,0-.07-.281c-.727-.024-1.43-.024-2.134-.047a.086.086,0,0,0-.07.024l-.07.281c-.047.234-.07.469-.117.7a.433.433,0,0,1-.047.164.3.3,0,0,1-.281.235,1.149,1.149,0,0,0-.281.023h-2.087c-.3,0-.586-.023-.891-.023a.332.332,0,0,1-.141-.047.179.179,0,0,1-.141-.188,1.637,1.637,0,0,1,0-.586m4.573-4.784c0,.117.141.352.281.352.234-.024.469-.024.68-.047a.2.2,0,0,0,.188-.164,1.094,1.094,0,0,0,.047-.4c-.188-1.149-.3-2.322-.422-3.471a.131.131,0,0,0-.117-.141.141.141,0,0,0-.094-.024.488.488,0,0,0-.117.281c-.047.3-.094.61-.141.938-.07.4-.117.8-.164,1.2-.024.328-.07.656-.117.985a3.463,3.463,0,0,1-.023.492" transform="translate(-1183.305 -3.314)" fill="#fff"/>
    <path id="Path_21" data-name="Path 21" d="M1420.708,20.813a.258.258,0,0,1-.094-.234V12.77a.769.769,0,0,0-.094-.4c-.539-1.383-1.079-2.767-1.641-4.15-.352-.915-.727-1.806-1.079-2.72-.164-.375-.3-.75-.446-1.126a2.786,2.786,0,0,0-.117-.258.967.967,0,0,1-.071-.375.532.532,0,0,1,.071-.258c.047-.071.094-.141.188-.141a3.552,3.552,0,0,1,.492-.07c.868-.023,1.712-.047,2.579-.047.117,0,.258.024.375.024h.469c.07,0,.117.047.188.094a.986.986,0,0,1,.211.328l.985,2.462a1.386,1.386,0,0,0,.094.164,1.348,1.348,0,0,0,.094-.164c.258-.657.516-1.29.774-1.946a5.365,5.365,0,0,0,.234-.539c.141-.352.281-.4.633-.4a1.439,1.439,0,0,0,.328-.024h.07c.539,0,1.055,0,1.594.024.352,0,.7,0,1.055.023a3.87,3.87,0,0,1,.539.047.391.391,0,0,1,.328.422.939.939,0,0,1-.07.352c-.352.891-.727,1.806-1.079,2.7-.352.844-.68,1.688-1.008,2.532-.235.563-.446,1.126-.68,1.665a1.508,1.508,0,0,1-.094.3c-.117.3-.258.633-.375.938-.023.024-.023.024-.023.047a.97.97,0,0,0-.188.68c.023.235.023.469.023.727v3.893c0,.445-.023.75-.023,1.219,0,.258,0,.516-.024.774,0,.375-.023.727-.047,1.126a.637.637,0,0,1-.4.141c-.586.023-1.2.023-1.782.023-.657,0-1.29-.023-1.923-.023a.086.086,0,0,1-.07-.024" transform="translate(-1272.995 -2.898)" fill="#fff"/>
    <path id="Path_22" data-name="Path 22" d="M1026.3,8.826a20.6,20.6,0,0,1,.137-2.294c.034-.205.068-.411.12-.616a4.894,4.894,0,0,1,1.284-2.568c.1-.086.206-.188.308-.274a2.81,2.81,0,0,1,.377-.24,3.845,3.845,0,0,1,.993-.377,3.408,3.408,0,0,1,.822-.12,3.811,3.811,0,0,1,1.164.137,5.559,5.559,0,0,1,.8.274c.034.017.051.034.068.034a4.621,4.621,0,0,1,.788.616c.154.188.291.377.445.565a7.066,7.066,0,0,1,1.01,3.63c.017.308.017.616.034.925,0,.325.017.65,0,.976,0,.205-.017.394-.017.6-.017.188-.017.36-.034.531a3.532,3.532,0,0,1-.052.445,7.775,7.775,0,0,1-.582,2.311c-.1.188-.188.411-.274.6a2.259,2.259,0,0,1-.907,1.01,4.24,4.24,0,0,1-1.729.753.731.731,0,0,1-.188.034.584.584,0,0,0-.24.034.5.5,0,0,1-.154.034,3.782,3.782,0,0,1-2.123-.651,2.58,2.58,0,0,1-.822-.788,2.556,2.556,0,0,1-.308-.514,8.83,8.83,0,0,1-.89-3.578,2.075,2.075,0,0,0-.017-.325c-.034-.394-.017-.77-.017-1.164m5.222-1.712c0-.137-.017-.308-.017-.5a2.007,2.007,0,0,0-.171-.7c-.154-.257-.325-.514-.651-.514h-.342l-.154.051a2.131,2.131,0,0,0-.308.24,1.548,1.548,0,0,0-.342.942l-.1,1.438v.069a9.657,9.657,0,0,0-.068.993c0,.086.017.154.017.24,0,.1.017.188.017.291v.308c0,.274,0,.531.017.8V11c.034.188.069.394.1.582a.5.5,0,0,0,.034.154c.137.5.428.942.976.942a1.1,1.1,0,0,0,.548-.223,1.665,1.665,0,0,0,.411-1.01,1.667,1.667,0,0,0,.017-.582v-.205a1.569,1.569,0,0,0,.017-.291,8.673,8.673,0,0,1,.034-.942c0-.411.017-.839-.017-1.25a5.438,5.438,0,0,1-.017-1.062" transform="translate(-921.886 -2.099)" fill="#e40523"/>
    <path id="Path_23" data-name="Path 23" d="M1040.5,153.163c-.128.014-.256.014-.384.028s-2.485.042-2.8.042c-.347,0-.128.014-.475.014H1036c-.448,0-.886,0-1.325-.014h-.758c-.073,0-.082-.084-.082-.182,0-.671,0-1.468.009-2.153,0-.2.082-.252.128-.252h3.042c.548,0,2.932-.014,3.106-.014h.183a1.157,1.157,0,0,1,.219.014.212.212,0,0,1,.137.21v.461c0,.475,0,.965.009,1.44,0,.084-.018.406-.164.406" transform="translate(-928.66 -135.308)" fill="#e40523"/>
    <path id="Path_24" data-name="Path 24" d="M87.617,4.62q-.211,1.2-.352,2.392l-.211,1.337c-.047.3-.094.633-.141.938-.07.422-.141.868-.211,1.29-.117.633-.211,1.243-.3,1.876-.094.469-.141.938-.234,1.407-.07.422-.141.868-.211,1.29-.094.539-.188,1.1-.281,1.642-.117.633-.211,1.243-.328,1.876-.094.516-.187,1.055-.281,1.571-.071.352-.164.7-.258,1.055a.736.736,0,0,1-.492.164H82.834c-.61,0-.434-.023-1.043-.023h-.375a.344.344,0,0,1-.047-.328c.047-.328.117-.657.164-.961.164-.985.328-1.97.516-2.978.141-.844.281-1.665.422-2.509.117-.8.258-1.571.4-2.345.164-.938.3-1.9.469-2.837l.422-2.6c.094-.61.211-1.219.3-1.829.047-.258.094-.516.164-.774a.566.566,0,0,1,.328-.328h1c.492-.023.985-.023,1.477-.023h.094a.388.388,0,0,1,.3.117c.047.07.117.07.188.117a1.571,1.571,0,0,1,0,.469" transform="translate(-73.071 -3.519)" fill="#e40523"/>
    <path id="Path_25" data-name="Path 25" d="M32.3,4.62q-.211,1.2-.352,2.392l-.211,1.337c-.047.3-.094.633-.141.938-.07.422-.141.868-.211,1.29-.117.633-.211,1.243-.3,1.876-.094.469-.141.938-.234,1.407-.07.422-.141.868-.211,1.29-.094.539-.188,1.1-.281,1.642-.117.633-.211,1.243-.328,1.876-.094.516-.187,1.055-.281,1.571-.071.352-.164.7-.258,1.055a.736.736,0,0,1-.492.164H27.514c-.61,0-.434-.023-1.043-.023h-.375a.344.344,0,0,1-.047-.328c.047-.328.117-.657.164-.961.164-.985.328-1.97.516-2.978.141-.844.281-1.665.422-2.509.117-.8.258-1.571.4-2.345.164-.938.3-1.9.469-2.837l.422-2.6c.094-.61.211-1.219.3-1.829.047-.258.094-.516.164-.774a.566.566,0,0,1,.328-.328h1c.492-.023.985-.023,1.477-.023H31.8a.389.389,0,0,1,.3.117c.047.07.117.07.188.117a1.571,1.571,0,0,1,0,.469" transform="translate(-23.379 -3.519)" fill="#e40523"/>
    <path id="Path_26" data-name="Path 26" d="M26.126,42.226c.036.077.025.146.087.2a.389.389,0,0,1,.069.319l-.015.093c-.076.487-.152.973-.252,1.456l-.14.892-.015.093a.566.566,0,0,1-.375.274c-.266.03-.528.036-.79.042-.617,0-1.237.02-1.854.018-.879,0,.252.01-.626.014-.952.017-1.924.008-2.876.025-.786.019-1.573.039-2.378.031-.856.009-1.688.02-2.544.029-1.025.029-2.024.039-3.022.049-.308,0-.643.018-.975.013a.344.344,0,0,1-.317-.1l.058-.371c.094-.6.044-.432.138-1.035l.228-1.46a.736.736,0,0,1,.238-.461c.362-.038.724-.076,1.082-.092.524-.013,1.072-.022,1.6-.035.644-.018,1.261-.016,1.9-.034.547-.009,1.118-.015,1.665-.024.428,0,.879,0,1.307-.009.478-.02.949.006,1.426-.014.64.005,1.257.007,1.9-.011.428,0,.879,0,1.307-.009.308,0,.64.005.949.006.451,0-1.108,0-.657,0q1.2.046,2.417.022a1.573,1.573,0,0,1,.463.073" transform="translate(-9.075 -37.841)" fill="#e40523"/>
    <path id="Path_27" data-name="Path 27" d="M16.023,102.292c.036.077.025.146.087.2a.389.389,0,0,1,.069.319l-.015.093c-.076.487-.152.973-.252,1.456l-.14.892-.015.093a.566.566,0,0,1-.375.274c-.266.03-.528.036-.79.042-.617,0-1.237.02-1.854.018-.879,0,.252.01-.626.014-.952.017-1.924.008-2.876.025-.786.019-1.573.039-2.379.031-.856.009-1.688.02-2.544.029-1.025.029-2.024.039-3.022.049-.308,0-.643.018-.975.013a.344.344,0,0,1-.317-.1l.058-.371c.094-.6.044-.432.138-1.035l.228-1.46a.736.736,0,0,1,.238-.461c.362-.038.724-.077,1.082-.092.524-.013,1.072-.022,1.6-.035.644-.018,1.261-.016,1.9-.034.547-.009,1.118-.015,1.665-.024.428,0,.879,0,1.307-.009.478-.02.949.006,1.426-.014.64.005,1.257.007,1.9-.011.428,0,.879,0,1.307-.009.308,0,.64.005.949.006.451,0-1.108,0-.657,0q1.2.046,2.417.022a1.573,1.573,0,0,1,.463.073" transform="translate(0 -91.797)" fill="#e40523"/>
  </g>
</svg>
